<svg xmlns="http://www.w3.org/2000/svg" viewBox="0 0 200.99 187.29"><defs><style>.cls-1{fill:#fff;}.cls-2{fill:#010101;}.cls-3{fill:#292727;}.cls-4{fill:#3d3b3a;}.cls-5{fill:#2a2929;}.cls-6{fill:#7a7676;}.cls-7{fill:#a7a4a4;}.cls-8{fill:#928e8e;}.cls-9{fill:#6c6969;}.cls-10{fill:#7ac144;}.cls-11{fill:#d67f3d;}.cls-12{fill:#f06d7b;}.cls-13{fill:#fbae5f;}.cls-14{fill:#c0c1c0;}.cls-15{fill:#d75f71;}.cls-16{fill:#eeedc5;}.cls-17{fill:#649941;}.cls-18{fill:#5c596e;}.cls-19{fill:#c8c693;}.cls-20{fill:#f7ac5e;}.cls-21{fill:#db72aa;}.cls-22{fill:#090502;}.cls-23{fill:#080502;}</style></defs><title>Ativo 1</title><g id="Camada_2" data-name="Camada 2"><g id="Camada_1-2" data-name="Camada 1"><g id="Group_55" data-name="Group 55"><path id="Path_30" data-name="Path 30" class="cls-1" d="M59.5,176.79C-11,236.15-17.8,24.89,33.62,14.06S141-16.57,177.15,26.65a102.35,102.35,0,0,1-12.56,143.92C121.49,206.84,130.06,117.42,59.5,176.79Z"/></g><path class="cls-2" d="M156.53,106.35a25.3,25.3,0,0,0-.65,4.23,122.6,122.6,0,0,1-3.39,15.31,21.12,21.12,0,0,1-20.36,14.66q-31.62.09-63.24,0c-10.67,0-19-7.07-21.31-17.89-1-4.51-2.08-9-2.66-13.58a107,107,0,0,1-.28-16.6,12.14,12.14,0,0,1,.84-4.91,13.39,13.39,0,0,1,4.33-5.11C53.61,79.59,58,78,62.5,76.61a110.71,110.71,0,0,1,13.83-3,1.83,1.83,0,0,1,2.21,1.3,1.58,1.58,0,0,1-1.27,2.17,41.63,41.63,0,0,1-4.18.79,82.54,82.54,0,0,0-10,2.45,35,35,0,0,0-12.23,5.84,7,7,0,0,0-1.48,1.6c-1.49,2.19-1.36,3.93.43,5.91A19.88,19.88,0,0,0,56.23,98a55,55,0,0,0,11.27,3.8,10,10,0,0,1,5.81,3.61c.08.11.15.26.4.19a13.34,13.34,0,0,0-.8-1.76,12.75,12.75,0,0,1-.42-10.18,9.7,9.7,0,0,1,6.45-6.05,1.58,1.58,0,0,0,1.27-1.39,13.76,13.76,0,0,1,3.33-6.43c.63-.72.74-1.22.06-2a6.1,6.1,0,0,1-1.69-3.24,16.83,16.83,0,0,1-.83-5.68c0-.59-.14-.62-.69-.46A6.17,6.17,0,0,1,72.47,62a43.23,43.23,0,0,1,.67-6.72A11.32,11.32,0,0,1,84,46.81c2.44,0,4.81,0,6.85,1.58a.83.83,0,0,0,1.08,0,11,11,0,0,1,6.15-1.55c2.47.11,5-.21,7.41.21a9.38,9.38,0,0,1,3.44,1.29,1.14,1.14,0,0,0,1.38,0c3.59-2.29,7.34-1.82,11.1-.57,1.34.45,1.61,1.19,1.21,2.57-.47,1-1.22,1.29-2.44.81a12.57,12.57,0,0,0-5.15-.73,4.87,4.87,0,0,0-.76.06c-1.5.25-1.67.61-1,1.92,1.86,3.42,3.82,6.79,5.46,10.32A4.22,4.22,0,0,0,122.23,65a2.56,2.56,0,0,0,2.69-2.76,28.59,28.59,0,0,0-.75-6.71,3.13,3.13,0,0,1-.17-.85c0-.83.22-1.52,1.17-1.71,1.52-.2,2,.05,2.45,1.47a24.25,24.25,0,0,1,.81,9.08c-.3,3.53-4,5.82-7.6,4.92-.87-.22-1,0-.91.75a16.26,16.26,0,0,1-.83,5.35,6.36,6.36,0,0,1-1.74,3.33c-.52.67-.61,1.14,0,1.78a14.28,14.28,0,0,1,3.3,5.94,13.37,13.37,0,0,0,1.72-3.68,3.47,3.47,0,0,1,2.27-2.48,3.26,3.26,0,0,1,4.15,2.23,15,15,0,0,1,.58,5.07,18,18,0,0,1-.91,5.59,1.8,1.8,0,0,0,.07,1.29,13.14,13.14,0,0,1-.77,11,1.67,1.67,0,0,0-.3,1.26c2-3.24,5.22-3.84,8.37-4.66a44.86,44.86,0,0,0,12-4.83,15.46,15.46,0,0,0,3.08-2.44c2.32-2.39,2.35-4.68,0-7.08a17.85,17.85,0,0,0-4.44-3.16,56.78,56.78,0,0,0-14.63-5.06c-2.35-.53-4.71-1-7.09-1.36a2.41,2.41,0,0,1-2-1.34.77.77,0,0,1,0-.92c.7-1.35,1-1.53,2.6-1.27,7.26,1.16,14.39,2.78,21.1,5.91a23.25,23.25,0,0,1,6.93,4.67,8.69,8.69,0,0,1,2.86,6.61c0,.19-.1.45.21.53v.66c-.16.15-.1.35-.11.53v1c0,.29-.1.59.11.86v1.09c-.24.51-.05,1-.11,1.56a7,7,0,0,0,.11,1.94v3.5a1.68,1.68,0,0,0,0,1.32v.87a.28.28,0,0,0,0,.44Z"/><path class="cls-3" d="M156.53,99.13c-.43-.62-.13-1.32-.21-2,.08-.1.15-.09.21,0Z"/><path class="cls-4" d="M156.53,97.16h-.21c.08-.51-.22-1.07.21-1.53Z"/><path class="cls-5" d="M156.53,104a1,1,0,0,1,0-1.32Z"/><path class="cls-6" d="M156.53,94.54c-.34-.24-.19-.58-.19-.89.07-.08.13-.09.19,0Z"/><path class="cls-7" d="M156.35,93.22v-.66c.06-.09.12-.09.18,0v.65Q156.44,93.37,156.35,93.22Z"/><path class="cls-8" d="M156.35,93.22h.18v.44h-.19C156.34,93.51,156.35,93.36,156.35,93.22Z"/><path class="cls-9" d="M156.53,105.26c-.28-.15-.24-.29,0-.44Z"/><path class="cls-10" d="M122.83,75c.3,1.46.67,1.77,2.15,2,7.11,1.17,14.12,2.7,20.66,5.89a17,17,0,0,1,6.05,4.39c1.83,2.29,1.74,4.35-.28,6.55A21.3,21.3,0,0,1,144,98.71a60.48,60.48,0,0,1-10.75,3.48,8.58,8.58,0,0,0-5.4,3.59c-.22.32-.41.63-.86.37s0-.58.09-.78c2.17-3.86,2.76-7.84,1-12a1.5,1.5,0,0,1,.09-1.14,19.6,19.6,0,0,0,.53-9.82,3.09,3.09,0,0,0-3-2.84c-1.49-.05-2.54.81-3.11,2.53a15.92,15.92,0,0,1-2.06,4.32,14.61,14.61,0,0,0-4-7.16c-.25-.24-.36-.44-.07-.72a15.77,15.77,0,0,0,2.65-4Z"/><path class="cls-10" d="M62.87,80.09a67.94,67.94,0,0,1,10.54-2.62c1.1-.22,2.22-.36,3.32-.58,1.42-.28,1.67-.59,1.81-2l3.37-.33a15.77,15.77,0,0,0,2.65,4c.3.28.17.47-.07.71a13.94,13.94,0,0,0-4.14,7.87c-.07.45-.36.58-.75.66C74,89,71.53,94.47,72,99.19a15,15,0,0,0,2,6.26c.11.18.52.44.06.69-.28.15-.53.18-.74-.16-1.64-2.7-4.34-3.55-7.2-4.23a46.55,46.55,0,0,1-10-3.51,2.2,2.2,0,0,1-.3-1.46c0-2,.12-4,0-6-.3-3.93,1.51-6.75,4.41-9.1A11.54,11.54,0,0,1,62.87,80.09Z"/><path class="cls-11" d="M125.17,53a1.93,1.93,0,0,0-.73,2.47,24.62,24.62,0,0,1,.75,7.25,2.74,2.74,0,0,1-3.65,2.5,4.69,4.69,0,0,1-3.06-2.48c-1.91-3.95-4.08-7.78-6.21-11.76,2.53-1.39,5.18-1.09,7.81-.16a2.05,2.05,0,0,0,2.55-.49A10.41,10.41,0,0,1,125.17,53Z"/><path class="cls-12" d="M140.77,129.21a19.09,19.09,0,0,1-7.76,1.42H80.19c-1.54,0-1.89.26-2.26,1.63a4.84,4.84,0,0,1-3.21,0c-.32-1.29-.73-1.61-2-1.63-3-.06-6,.19-9-.41a19,19,0,0,1-12.44-8.15c-1-1.41-1-3.09-1.36-4.66a68.73,68.73,0,0,1-2.05-19.69c0-.21,0-.41,0-.85a28.15,28.15,0,0,0,4.7,3.3,60.53,60.53,0,0,0,14.71,5.28,5.06,5.06,0,0,1,4,4.08c.65,2.86,1.27,5.74,1.91,8.61a8.13,8.13,0,0,0,8.22,6.6q19.14,0,38.3,0a8.15,8.15,0,0,0,8.19-6.63c.66-2.94,1.28-5.89,2-8.82a4.7,4.7,0,0,1,3.58-3.73,88.48,88.48,0,0,0,12.12-3.86c.78.11.55.75.57,1.19a29.92,29.92,0,0,1-.42,6.41c-.82,5.4-1.78,10.78-3.11,16.08A9.34,9.34,0,0,1,140.77,129.21Z"/><path class="cls-13" d="M114.45,75.58a8.24,8.24,0,0,0-7-5.73c-.36,0-.61-.09-.73-.49a3.83,3.83,0,0,0-2.84-2.46,11.49,11.49,0,0,0-6.77,0,3.88,3.88,0,0,0-2.84,2.47c-.09.25-.18.43-.5.46a8.24,8.24,0,0,0-7.26,5.85,7.07,7.07,0,0,1-1.87-3.85c-.39-2.79-.42-5.57,1-8.17,1.68-3,3.27-6.08,4.9-9.12A7.81,7.81,0,0,1,98,50.12a43.56,43.56,0,0,1,6.76.16A7.25,7.25,0,0,1,110.13,54c1.89,3.39,3.83,6.77,5.47,10.29a11.3,11.3,0,0,1-.21,10.1A2.26,2.26,0,0,1,114.45,75.58Z"/><path class="cls-14" d="M100.39,121.47H81.58a4.84,4.84,0,0,1-5.18-4c-.55-2.33-1-4.68-1.54-7-.07-.33-.49-.81.1-1s1.31-.76,1.93-.18a33.49,33.49,0,0,0,3.4,2.91c.29.2.25.49.29.77a2.38,2.38,0,0,0,2.36,2.25c.33,0,.66,0,1,0h33.14c2.4,0,2.79-.3,3.36-2.59.08-.34.33-.46.55-.62a24.63,24.63,0,0,0,2.88-2.52,1,1,0,0,1,1-.39c1.5.32,1.53.31,1.2,1.78-.49,2.2-1,4.4-1.49,6.59a4.86,4.86,0,0,1-5.17,4Z"/><path class="cls-13" d="M74.72,132.27h3.21a1.81,1.81,0,0,0,2,1.66l54.24,0c1,0,2-.14,3-.21.09.71-.58.85-.94,1.2a9,9,0,0,1-3.65,2.28c-.4,0-.8,0-1.2,0H69.12a18,18,0,0,1-13.92-6.17c-.14-.16-.27-.33-.41-.51.41-.31.64,0,.89.18a23.5,23.5,0,0,0,12.19,3.19c1.6,0,3.21,0,4.81,0C74,133.91,74.4,133.54,74.72,132.27Z"/><path class="cls-15" d="M140.77,129.21c.44-1.5,1.27-2.83,1.64-4.37.89-3.76,1.61-7.56,2.29-11.36a49.69,49.69,0,0,0,1.1-10.67c0-.38.15-.81-.27-1.1a30.76,30.76,0,0,0,7.4-4.61c.33.09.24.3.25.46.51,8-.91,15.71-2.81,23.39a7.45,7.45,0,0,1-1.92,2.88A17.83,17.83,0,0,1,140.77,129.21Z"/><path class="cls-13" d="M94.8,89.69c-1.39.35-1.73.77-1.73,2.2v14.64a9.48,9.48,0,0,0-4.66-1.23c-.36,0-.41-.26-.49-.49C86.48,100.2,84.5,95.74,83.58,91c-.71-3.67.69-6.85,3.38-9.59A8.3,8.3,0,0,0,94.6,86,3.7,3.7,0,0,1,94.8,89.69Z"/><path class="cls-13" d="M106.41,86a8.24,8.24,0,0,0,7.6-4.61A10.53,10.53,0,0,1,117.43,91c-.57,3.6-2.17,6.92-3.2,10.39a8.09,8.09,0,0,0-.28.83c-.4,2-1,3.59-3.61,3.39-.75-.06-1.54.53-2.4.85V91.9c0-1.43-.34-1.85-1.73-2.21A3.7,3.7,0,0,1,106.41,86Z"/><path class="cls-16" d="M96.36,104.84c0-1.64,0-3.28,0-4.92a4.14,4.14,0,1,1,8.28,0c0,3.39,0,6.78,0,10.16,0,1.68-.18,1.82-1.88,1.82s-3.5,0-5.24,0c-.56,0-.87-.12-1-.73a6.82,6.82,0,0,1-.19-1.28C96.36,108.19,96.36,106.51,96.36,104.84Z"/><path class="cls-11" d="M85.24,50.12a4.7,4.7,0,0,1,3,.6c.41.28.5.41.22.9q-3.43,5.9-6.45,12c-.46.93-2.85,1.9-4,1.62a2.73,2.73,0,0,1-2.24-2.93,55.39,55.39,0,0,1,.46-5.77,8,8,0,0,1,7.55-6.43C84.24,50.1,84.67,50.12,85.24,50.12Z"/><path class="cls-16" d="M107.28,82.67a4.63,4.63,0,0,1-5.09-3c-.34-.8-.79-1.4-1.74-1.38s-1.32.62-1.64,1.37a4.79,4.79,0,1,1-5.1-6.47,1.26,1.26,0,0,1,1.51.66,6,6,0,0,0,10.52.07c.5-.79,1-1,1.76-.58C110.34,75.37,110.18,81,107.28,82.67Z"/><path class="cls-11" d="M75.27,98.36c0-3.45,1.61-6.21,4.16-7.12.39-.14.7-.32.83.34.77,3.78,2.31,7.33,3.42,11a3.09,3.09,0,0,0,.18.51c.9,1.84,1.21,3.38-1,4.76-1.49.92-1.31,1.22-2.68-.07a14.87,14.87,0,0,1-4.71-7.45A18.19,18.19,0,0,1,75.27,98.36Z"/><path class="cls-11" d="M125.73,98.3a10.31,10.31,0,0,1-1.83,5.85,18.78,18.78,0,0,1-3.92,4.38c-.61.53-.93.44-1.33-.18a5.14,5.14,0,0,0-1.86-1.67c-.63-.34-.62-.71-.41-1.31,1.25-3.68,2.46-7.37,3.68-11.06a9.23,9.23,0,0,0,.6-2.42c0-.89.49-.88,1.13-.57C124.72,92.74,125.65,95.28,125.73,98.3Z"/><path class="cls-17" d="M62.87,80.09a21.55,21.55,0,0,0-5.33,4.75A7.22,7.22,0,0,0,56.11,89c-.07,3.09,0,6.17,0,9.26a19.44,19.44,0,0,1-6.24-4.12c-2.42-2.49-2.43-5,0-7.45a23.51,23.51,0,0,1,7.86-4.81A27.39,27.39,0,0,1,62.87,80.09Z"/><path class="cls-11" d="M106.41,86c-.44,1.19-.1,2.43-.2,3.65-2.2.46-1.38,2.28-1.63,3.75a7.81,7.81,0,0,0-8.14,0c-.3-1.43.56-3.32-1.64-3.78-.1-1.22.24-2.46-.2-3.65.45-.15.64.2.89.45a6.92,6.92,0,0,0,10,0C105.77,86.23,106,85.89,106.41,86Z"/><path class="cls-11" d="M132.67,137.18a22.21,22.21,0,0,0,4.59-3.48c1.49-.44,3-.69,4.49-1.26a41.09,41.09,0,0,0,4.24-2.05C144.82,133.23,138.24,137.36,132.67,137.18Z"/><path class="cls-18" d="M100.5,69.8a8,8,0,0,1,1.2,0c2,.31,2.25.44,1.23,2.35a2.81,2.81,0,0,1-3.19,1.32,3.48,3.48,0,0,1-2.25-2.72c0-.45.24-.56.54-.68A5.89,5.89,0,0,1,100.5,69.8Z"/><path class="cls-19" d="M107.28,82.67a6.52,6.52,0,0,0,.48-8.89,3.67,3.67,0,0,1-.26-.48,4.64,4.64,0,0,1,3.94,4,4.87,4.87,0,0,1-3.21,5.13A9.39,9.39,0,0,1,107.28,82.67Z"/><path class="cls-20" d="M125.47,84.09a13.75,13.75,0,0,1,0,5.46.55.55,0,0,1-.24,0c-.6-.42-1.55-.75-1.7-1.3s.61-1.23.93-1.87S125.12,84.84,125.47,84.09Z"/><path class="cls-21" d="M98.76,84.83c1.76-1.56,1.76-1.56,3.43,0A3.07,3.07,0,0,1,98.76,84.83Z"/><path class="cls-22" d="M109.54,65.29c0,1.3-.65,2.13-1.68,2.1s-1.64-.83-1.63-2.06.67-2,1.66-2S109.53,64.07,109.54,65.29Z"/><path class="cls-23" d="M91.46,65.36c0-1.24.6-2,1.58-2.08s1.75.84,1.74,2.09-.68,2-1.68,2S91.46,66.61,91.46,65.36Z"/></g></g></svg>