<svg xmlns="http://www.w3.org/2000/svg" viewBox="0 0 1280 720"><defs><style>.cls-1{fill:#8dc352;}.cls-2{opacity:0.32;}.cls-3{fill:none;stroke:#006838;stroke-miterlimit:10;stroke-width:2px;}</style></defs><title>Ativo 3</title><g id="Camada_2" data-name="Camada 2"><g id="Camada_1-2" data-name="Camada 1"><rect class="cls-1" width="1280" height="720"/><g class="cls-2"><path class="cls-3" d="M1163.1,257.79c1,.12,2.25-.05,3.11.43,2.54,1.42,5.77,2.62,6,6s-2.53,4.52-5.55,5.24-5.3,2.53-5.69,5.68c-.36,2.82-1.27,4.67-4.28,5.12-3.26.48-4.94-1.33-6.16-3.95-.51-1.12-1.07-2.21-1.7-3.51-1.72,1.72-.92,5.37-4.63,5.05s-5.15-2.71-6.56-5.48c-1.66-3.25,1.55-4.16,3-6.18-3.3-3-7.64-6.28-5.25-11.19,1.23-2.52,5.19-4.22,8.55-.84,0-.71.08-1,.07-1.34-.15-3-2.28-6.85,1.8-8.37,3.73-1.4,7.31.22,9.78,3.53a31,31,0,0,1,1.86,3.22c-.42,2.44-.77,4.64-3.76,5.72-2.59.94-4.45-.51-6.77-1.2,2.51,7.75,2.2,8.62-3.6,10.87,1,2.27,3.28,3.07,5,4.56C1149.76,260.93,1154.83,256.38,1163.1,257.79Z"/><path class="cls-3" d="M1158.2,250.83c.62-2.41.19-5.7,4.29-5.24a7.13,7.13,0,0,1,6.78,6.86c.42,4-3.14,3.44-5.56,4C1162.13,254.34,1159.06,253.66,1158.2,250.83Z"/></g><g class="cls-2"><path class="cls-3" d="M1174.35,204.09c1,.24,2.24.21,3,.77,2.37,1.7,5.45,3.24,5.27,6.64s-3,4.21-6.09,4.59-5.55,1.94-6.28,5c-.67,2.77-1.78,4.5-4.82,4.62-3.29.12-4.77-1.86-5.69-4.61-.38-1.16-.82-2.31-1.3-3.67-1.89,1.52-1.5,5.24-5.16,4.51s-4.82-3.26-5.91-6.17c-1.29-3.42,2-4,3.66-5.81-3-3.35-6.9-7.08-4-11.7,1.5-2.37,5.62-3.63,8.59.1.12-.7.2-1,.22-1.32.18-3-1.51-7.06,2.71-8.12,3.87-1,7.24,1,9.33,4.59a30.47,30.47,0,0,1,1.5,3.4c-.69,2.38-1.28,4.53-4.37,5.28-2.67.64-4.37-1-6.6-2,1.64,8,1.24,8.81-4.77,10.41.76,2.37,2.93,3.41,4.51,5.09C1160.74,205.74,1166.28,201.78,1174.35,204.09Z"/><path class="cls-3" d="M1170.24,196.64c.89-2.33.82-5.65,4.85-4.74a7.14,7.14,0,0,1,6,7.56c0,4-3.5,3.08-6,3.4C1173.76,200.56,1170.79,199.54,1170.24,196.64Z"/></g><g class="cls-2"><path class="cls-3" d="M1109.54,202.45c1,.07,2.25-.17,3.12.26,2.63,1.27,5.92,2.28,6.31,5.66s-2.28,4.65-5.25,5.54-5.15,2.83-5.37,6c-.19,2.84-1,4.74-4,5.35-3.23.67-5-1-6.37-3.59-.58-1.08-1.19-2.15-1.9-3.41-1.61,1.82-.61,5.41-4.33,5.3s-5.3-2.41-6.86-5.1c-1.84-3.16,1.31-4.24,2.65-6.34-3.47-2.81-8-5.84-5.87-10.88,1.08-2.58,4.94-4.51,8.48-1.32,0-.7,0-1,0-1.34-.32-3-2.66-6.71,1.32-8.46,3.66-1.6,7.31-.19,10,3a32.65,32.65,0,0,1,2,3.11c-.29,2.46-.51,4.68-3.43,5.93-2.54,1.08-4.48-.26-6.83-.83,2.93,7.6,2.68,8.49-3,11.06,1.15,2.21,3.46,2.88,5.29,4.27C1096.39,206.33,1101.2,201.51,1109.54,202.45Z"/><path class="cls-3" d="M1104.25,195.78c.49-2.44-.13-5.7,4-5.48a7.15,7.15,0,0,1,7.16,6.47c.64,4-2.94,3.61-5.33,4.34C1108.37,199.07,1105.28,198.55,1104.25,195.78Z"/></g><g class="cls-2"><path class="cls-3" d="M1128.39,147.56c1,.25,2.24.23,3,.8,2.36,1.72,5.42,3.29,5.21,6.69s-3.06,4.18-6.14,4.53-5.57,1.88-6.33,4.95c-.69,2.77-1.82,4.49-4.87,4.57-3.29.09-4.74-1.9-5.64-4.66-.37-1.16-.79-2.31-1.26-3.68-1.91,1.5-1.56,5.22-5.2,4.45s-4.8-3.3-5.86-6.22c-1.25-3.43,2-3.94,3.72-5.78-2.92-3.38-6.83-7.15-3.87-11.74,1.52-2.35,5.66-3.57,8.59.19.12-.69.21-1,.23-1.32.21-3-1.44-7.07,2.79-8.09,3.88-.94,7.23,1.09,9.29,4.68a31.37,31.37,0,0,1,1.46,3.42c-.71,2.37-1.32,4.51-4.42,5.23-2.68.62-4.36-1-6.58-2,1.56,8,1.16,8.82-4.88,10.36.74,2.38,2.9,3.44,4.46,5.13C1114.77,149.08,1120.35,145.17,1128.39,147.56Z"/><path class="cls-3" d="M1124.36,140.06c.91-2.31.87-5.63,4.89-4.68a7.14,7.14,0,0,1,5.91,7.62c-.06,4-3.53,3-6,3.33C1127.84,144,1124.88,143,1124.36,140.06Z"/></g><g class="cls-2"><path class="cls-3" d="M1077.48,73.46c1-.08,2.21-.48,3.14-.18,2.77.9,6.17,1.44,7,4.74s-1.6,4.92-4.42,6.21-4.71,3.52-4.49,6.68c.2,2.84-.34,4.82-3.2,5.85-3.1,1.1-5.11-.34-6.81-2.68-.72-1-1.48-2-2.35-3.11-1.35,2,.15,5.45-3.56,5.85s-5.58-1.65-7.5-4.1c-2.25-2.87.72-4.38,1.75-6.64-3.83-2.31-8.72-4.68-7.33-10,.72-2.71,4.27-5.15,8.22-2.49-.09-.7-.11-1-.18-1.32-.73-2.91-3.57-6.28.13-8.57,3.4-2.09,7.22-1.2,10.28,1.57a29.86,29.86,0,0,1,2.46,2.8c.06,2.48.14,4.7-2.58,6.34-2.36,1.42-4.46.37-6.88.13,4,7.12,3.84,8-1.42,11.37,1.44,2,3.82,2.37,5.83,3.49C1065,79.13,1069.1,73.68,1077.48,73.46Z"/><path class="cls-3" d="M1071.33,67.58c.14-2.48-.93-5.62,3.19-6a7.15,7.15,0,0,1,8,5.41c1.18,3.83-2.42,4-4.69,5C1075.86,70.27,1072.72,70.19,1071.33,67.58Z"/></g><g class="cls-2"><path class="cls-3" d="M999.09,57.28c.83-.64,1.58-1.6,2.52-1.86,2.81-.77,6-2.17,8.47.12s1.35,5-.3,7.62-2,5.52-.1,8c1.72,2.26,2.36,4.22.52,6.65-2,2.62-4.46,2.51-7.17,1.48-1.14-.44-2.3-.83-3.66-1.32,0,2.43,3.1,4.48.22,6.85s-5.58,1.67-8.52.67c-3.46-1.17-1.8-4.06-2.18-6.52-4.46.17-9.85.86-11.58-4.33-.88-2.65.76-6.64,5.52-6.57a13.11,13.11,0,0,0-.88-1c-2.2-2-6.42-3.31-4.57-7.24,1.7-3.61,5.38-5,9.46-4.31a30.33,30.33,0,0,1,3.59,1c1.4,2,2.69,3.86,1.31,6.72-1.19,2.48-3.54,2.75-5.68,3.87,7.21,3.79,7.6,4.63,5,10.3,2.31.9,4.49-.11,6.79-.27C991.74,68.86,992.19,62.06,999.09,57.28Z"/><path class="cls-3" d="M990.72,55.73c-1.24-2.15-3.85-4.2-.6-6.74a7.14,7.14,0,0,1,9.64.16c3.09,2.56.16,4.66-1.16,6.77C996,55.5,993.31,57.15,990.72,55.73Z"/></g><g class="cls-2"><path class="cls-3" d="M939.18,51.12c1.06,0,2.24-.34,3.14,0C945,52.22,948.39,53,949,56.33s-1.92,4.8-4.82,5.91-4.93,3.21-4.91,6.37c0,2.85-.65,4.8-3.58,5.64-3.16.9-5.07-.67-6.61-3.12-.66-1-1.35-2-2.15-3.25-1.47,1.93-.2,5.44-3.93,5.6s-5.46-2-7.22-4.57c-2.06-3,1-4.32,2.17-6.52-3.67-2.55-8.39-5.23-6.66-10.41.89-2.66,4.59-4.86,8.36-1.95,0-.7,0-1-.1-1.33-.54-3-3.15-6.5.69-8.54,3.53-1.87,7.28-.73,10.16,2.23a31.2,31.2,0,0,1,2.27,3c-.1,2.48-.16,4.7-3,6.16-2.45,1.27-4.48.08-6.87-.31,3.49,7.36,3.3,8.26-2.16,11.25,1.31,2.11,3.66,2.61,5.6,3.86C926.37,56,930.8,50.8,939.18,51.12Z"/><path class="cls-3" d="M933.42,44.86c.31-2.47-.56-5.68,3.57-5.76A7.14,7.14,0,0,1,944.61,45c.93,3.9-2.67,3.82-5,4.72C937.77,47.83,934.65,47.55,933.42,44.86Z"/></g><g class="cls-2"><path class="cls-3" d="M863.27,35.24c1.05,0,2.23-.34,3.13,0,2.71,1.08,6.07,1.84,6.71,5.19s-1.92,4.8-4.82,5.91-4.93,3.2-4.91,6.37c0,2.85-.65,4.8-3.57,5.63-3.17.91-5.07-.66-6.62-3.11-.66-1-1.35-2-2.14-3.25-1.48,1.93-.21,5.44-3.94,5.6s-5.46-2-7.21-4.57c-2.07-3,1-4.33,2.16-6.52-3.66-2.55-8.39-5.23-6.66-10.41.89-2.66,4.59-4.87,8.36-2,0-.71,0-1-.1-1.33-.54-2.95-3.15-6.5.69-8.54,3.53-1.87,7.28-.74,10.16,2.23a30,30,0,0,1,2.27,2.95c-.1,2.47-.16,4.7-3,6.16-2.45,1.27-4.48.08-6.87-.31,3.49,7.36,3.3,8.26-2.16,11.25,1.31,2.11,3.66,2.61,5.6,3.86C850.45,40.09,854.88,34.92,863.27,35.24Z"/><path class="cls-3" d="M857.5,29c.31-2.47-.56-5.68,3.57-5.76a7.14,7.14,0,0,1,7.62,5.92c.94,3.9-2.66,3.82-5,4.72C861.85,32,858.73,31.67,857.5,29Z"/></g><g class="cls-2"><path class="cls-3" d="M1068.5,148.89c1,.06,2.25-.19,3.13.22,2.64,1.25,5.94,2.22,6.37,5.6s-2.22,4.67-5.18,5.6-5.12,2.89-5.3,6.05c-.16,2.84-1,4.75-3.92,5.4-3.21.7-5-1-6.41-3.52-.59-1.08-1.22-2.13-1.93-3.38-1.6,1.83-.55,5.41-4.28,5.34s-5.33-2.34-6.92-5c-1.87-3.14,1.27-4.26,2.57-6.37-3.5-2.78-8-5.75-6-10.81,1-2.6,4.88-4.57,8.46-1.42,0-.71,0-1,0-1.34-.36-3-2.74-6.68,1.22-8.48,3.63-1.65,7.31-.27,10,2.87a31.32,31.32,0,0,1,2.08,3.08c-.26,2.46-.45,4.68-3.36,6-2.52,1.12-4.48-.2-6.84-.74,3,7.56,2.78,8.45-2.85,11.09,1.17,2.2,3.48,2.84,5.34,4.21C1055.4,152.93,1060.15,148.05,1068.5,148.89Z"/><path class="cls-3" d="M1063.14,142.28c.46-2.44-.2-5.69,3.92-5.52a7.16,7.16,0,0,1,7.24,6.38c.68,4-2.9,3.65-5.28,4.41C1067.29,145.53,1064.19,145.05,1063.14,142.28Z"/></g><g class="cls-2"><path class="cls-3" d="M1023.11,113.73c1.05.06,2.25-.2,3.13.22,2.64,1.24,5.94,2.22,6.37,5.59s-2.22,4.68-5.18,5.61-5.12,2.88-5.3,6c-.16,2.84-.94,4.74-3.92,5.4-3.21.7-5-1-6.41-3.53-.59-1.07-1.21-2.12-1.93-3.37-1.6,1.83-.55,5.41-4.28,5.34s-5.32-2.35-6.92-5c-1.87-3.14,1.27-4.26,2.58-6.38-3.51-2.77-8-5.74-6-10.8,1-2.6,4.88-4.57,8.46-1.43,0-.7,0-1,0-1.33-.36-3-2.74-6.68,1.22-8.48,3.63-1.65,7.31-.28,10,2.86a31.47,31.47,0,0,1,2.08,3.09c-.26,2.46-.45,4.68-3.36,6-2.52,1.11-4.48-.2-6.84-.74,3,7.56,2.78,8.45-2.85,11.09,1.17,2.19,3.48,2.84,5.34,4.21C1010,117.77,1014.77,112.89,1023.11,113.73Z"/><path class="cls-3" d="M1017.75,107.12c.46-2.44-.2-5.7,3.92-5.52a7.16,7.16,0,0,1,7.24,6.38c.69,4-2.9,3.65-5.28,4.4C1021.91,110.36,1018.8,109.89,1017.75,107.12Z"/></g><g class="cls-2"><path class="cls-3" d="M957.34,110.17c1-.38,2-1.11,2.94-1.1,2.91,0,6.32-.45,8.12,2.45s-.08,5.17-2.39,7.24-3.46,4.76-2.31,7.71c1,2.65,1.11,4.71-1.32,6.54-2.63,2-5,1.19-7.3-.54-1-.74-2-1.43-3.16-2.27-.69,2.33,1.75,5.15-1.67,6.63s-5.82.08-8.37-1.68c-3-2.08-.62-4.4-.31-6.87-4.34-1.07-9.7-1.88-9.94-7.34-.13-2.8,2.54-6.18,7.11-4.81-.3-.64-.41-.94-.57-1.21-1.56-2.56-5.27-4.94-2.41-8.22,2.62-3,6.53-3.29,10.28-1.55a30.8,30.8,0,0,1,3.18,1.95c.79,2.34,1.53,4.44-.58,6.82-1.83,2.06-4.16,1.67-6.53,2.16,5.89,5.62,6,6.53,2,11.28,2,1.51,4.35,1.13,6.6,1.6C947.1,119.29,949.4,112.87,957.34,110.17Z"/><path class="cls-3" d="M949.72,106.39c-.6-2.42-2.55-5.1,1.28-6.65a7.15,7.15,0,0,1,9.23,2.8c2.26,3.31-1.13,4.52-3,6.19C954.84,107.61,951.82,108.46,949.72,106.39Z"/></g><g class="cls-2"><path class="cls-3" d="M885.72,91.36c1-.34,2-1,3-1,2.91.19,6.33-.11,8,2.87s-.34,5.16-2.76,7.11-3.7,4.57-2.71,7.57c.9,2.71.86,4.77-1.67,6.46-2.73,1.84-5,.93-7.25-.92-.94-.78-1.91-1.53-3-2.43-.81,2.29,1.48,5.24-2,6.54s-5.81-.23-8.27-2.13c-2.89-2.23-.39-4.42,0-6.87-4.27-1.3-9.59-2.39-9.54-7.85,0-2.81,2.87-6,7.35-4.43-.26-.66-.35-1-.5-1.24-1.42-2.64-5-5.21-2-8.34,2.77-2.86,6.69-2.93,10.35-1a31.41,31.41,0,0,1,3.06,2.11c.67,2.38,1.3,4.52-.93,6.78-1.94,2-4.24,1.45-6.64,1.81,5.59,5.93,5.69,6.85,1.42,11.37,1.89,1.61,4.28,1.36,6.51,2C875,99.92,877.65,93.63,885.72,91.36Z"/><path class="cls-3" d="M878.31,87.17c-.47-2.44-2.28-5.22,1.63-6.57A7.14,7.14,0,0,1,889,83.88c2.09,3.43-1.36,4.46-3.3,6C883.37,88.67,880.31,89.36,878.31,87.17Z"/></g><g class="cls-2"><path class="cls-3" d="M800.91,52.47c1-.24,2.11-.81,3.07-.65,2.88.48,6.32.51,7.66,3.64s-.86,5.11-3.46,6.8-4.13,4.18-3.44,7.27c.62,2.78.39,4.83-2.3,6.27-2.9,1.55-5.09.42-7.12-1.64-.86-.87-1.76-1.71-2.79-2.72-1,2.2,1,5.36-2.65,6.31s-5.77-.8-8-2.93c-2.65-2.51.06-4.44.74-6.84-4.13-1.71-9.31-3.32-8.72-8.75.3-2.79,3.45-5.73,7.75-3.69-.2-.67-.26-1-.38-1.28-1.15-2.76-4.46-5.68-1.14-8.49,3-2.57,7-2.26,10.4,0a30.68,30.68,0,0,1,2.85,2.4c.42,2.44.84,4.62-1.61,6.65-2.12,1.76-4.36,1-6.78,1.15,5,6.45,5,7.37.29,11.46,1.72,1.79,4.12,1.77,6.28,2.58C789.42,59.93,792.65,53.93,800.91,52.47Z"/><path class="cls-3" d="M794,47.57c-.23-2.48-1.75-5.42,2.26-6.38a7.15,7.15,0,0,1,8.71,4.16c1.74,3.61-1.8,4.3-3.88,5.68C798.83,49.55,795.72,49.94,794,47.57Z"/></g></g></g></svg>