<svg xmlns="http://www.w3.org/2000/svg" viewBox="0 0 1080 1920"><defs><style>.cls-1{fill:#8dc352;}.cls-2{opacity:0.32;}.cls-3{fill:none;stroke:#006838;stroke-miterlimit:10;stroke-width:2.99px;}</style></defs><title>Ativo 1</title><g id="Camada_2" data-name="Camada 2"><g id="Camada_1-2" data-name="Camada 1"><rect class="cls-1" x="-420" y="420" width="1920" height="1080" transform="translate(1500 420) rotate(90)"/><g class="cls-2"><path class="cls-3" d="M695.58,1744.65c-.19,1.57.06,3.38-.64,4.66-2.12,3.82-3.91,8.66-9,9-5.22.31-6.74-3.8-7.81-8.32-1-4.34-3.78-8-8.47-8.55-4.21-.53-7-1.9-7.63-6.42-.72-4.88,2-7.41,5.89-9.23,1.66-.77,3.29-1.6,5.22-2.55-2.56-2.57-8-1.37-7.52-6.94.47-5.37,4-7.73,8.16-9.85,4.86-2.48,6.21,2.33,9.22,4.5,4.48-5,9.36-11.45,16.69-7.87,3.76,1.84,6.3,7.78,1.26,12.82,1,.06,1.52.13,2,.11,4.46-.23,10.22-3.42,12.49,2.69,2.08,5.61-.33,11-5.28,14.67a43.91,43.91,0,0,1-4.8,2.8c-3.64-.63-6.91-1.15-8.53-5.63-1.4-3.89.76-6.68,1.8-10.16-11.56,3.75-12.86,3.3-16.21-5.41-3.38,1.53-4.58,4.93-6.8,7.57C690.9,1724.64,697.68,1732.25,695.58,1744.65Z"/><path class="cls-3" d="M706,1737.3c3.59.94,8.49.28,7.81,6.44s-4.53,9.57-10.23,10.17c-5.95.63-5.13-4.71-6-8.35C700.71,1743.19,701.74,1738.6,706,1737.3Z"/></g><g class="cls-2"><path class="cls-3" d="M775.65,1761.52c-.36,1.54-.31,3.37-1.15,4.56-2.53,3.57-4.83,8.18-9.9,7.92s-6.27-4.52-6.85-9.14c-.54-4.43-2.88-8.33-7.47-9.43-4.14-1-6.72-2.67-6.89-7.23-.18-4.93,2.77-7.15,6.87-8.52,1.73-.59,3.44-1.23,5.47-2-2.27-2.84-7.81-2.25-6.72-7.73,1.06-5.29,4.86-7.24,9.19-8.88,5.1-1.93,5.91,3,8.67,5.49,5-4.43,10.56-10.35,17.45-6,3.54,2.24,5.41,8.42-.15,12.87a19.89,19.89,0,0,0,2,.33c4.46.27,10.53-2.26,12.11,4.07,1.46,5.8-1.53,10.86-6.85,14a44.5,44.5,0,0,1-5.08,2.25c-3.54-1-6.74-1.91-7.86-6.54-1-4,1.49-6.56,2.91-9.9-11.9,2.45-13.15,1.86-15.53-7.17-3.53,1.15-5.09,4.39-7.59,6.77C773.19,1741.11,779.09,1749.43,775.65,1761.52Z"/><path class="cls-3" d="M786.77,1755.37c3.46,1.33,8.41,1.22,7.06,7.26s-5.55,9-11.28,9c-6,0-4.58-5.25-5.06-9C780.91,1760.64,782.43,1756.19,786.77,1755.37Z"/></g><g class="cls-2"><path class="cls-3" d="M778.1,1664.3c-.1,1.58.25,3.38-.38,4.69-1.9,3.94-3.41,8.87-8.45,9.46s-6.94-3.41-8.26-7.87c-1.27-4.27-4.22-7.73-8.93-8-4.24-.29-7.07-1.51-8-6-1-4.83,1.56-7.51,5.37-9.55,1.61-.87,3.19-1.79,5.07-2.84-2.7-2.43-8.06-.92-7.89-6.51.16-5.39,3.59-8,7.6-10.29,4.71-2.75,6.32,2,9.45,4,4.2-5.2,8.71-12,16.22-8.8,3.86,1.62,6.73,7.41,2,12.72,1.05,0,1.52,0,2,0,4.44-.48,10-4,12.62,2,2.39,5.48.28,11-4.45,14.94a44.35,44.35,0,0,1-4.64,3.07c-3.66-.43-7-.76-8.83-5.15-1.61-3.8.39-6.71,1.23-10.24-11.33,4.4-12.65,4-16.49-4.48-3.29,1.72-4.29,5.18-6.37,7.94C772.31,1644.59,779.51,1651.8,778.1,1664.3Z"/><path class="cls-3" d="M788.05,1656.38c3.64.73,8.5-.2,8.16,6s-4,9.81-9.64,10.73c-5.9,1-5.39-4.41-6.47-8C783.15,1662.56,783.91,1657.91,788.05,1656.38Z"/></g><g class="cls-2"><path class="cls-3" d="M860,1692.58c-.37,1.54-.34,3.37-1.19,4.55-2.56,3.54-4.91,8.13-10,7.82s-6.23-4.59-6.75-9.21c-.51-4.43-2.81-8.36-7.39-9.51-4.12-1-6.69-2.73-6.81-7.29-.13-4.94,2.84-7.12,6.95-8.46,1.73-.56,3.45-1.19,5.49-1.9-2.24-2.86-7.78-2.33-6.64-7.8,1.11-5.27,4.93-7.19,9.28-8.79,5.12-1.87,5.88,3.06,8.61,5.59,5-4.38,10.66-10.25,17.51-5.8,3.51,2.28,5.33,8.48-.28,12.87,1,.19,1.5.32,2,.35,4.46.31,10.56-2.16,12.08,4.19,1.4,5.81-1.64,10.84-7,13.92a44.53,44.53,0,0,1-5.1,2.2c-3.54-1.07-6.73-2-7.79-6.62-.93-4,1.55-6.54,3-9.87-11.93,2.33-13.16,1.72-15.46-7.32-3.54,1.1-5.13,4.33-7.65,6.68C857.69,1672.15,863.52,1680.52,860,1692.58Z"/><path class="cls-3" d="M871.13,1686.54c3.45,1.36,8.4,1.3,7,7.33s-5.64,9-11.37,8.87c-6-.1-4.53-5.3-5-9C865.22,1691.75,866.79,1687.32,871.13,1686.54Z"/></g><g class="cls-2"><path class="cls-3" d="M970.46,1616.23c.12,1.57.71,3.3.27,4.69-1.34,4.17-2.16,9.26-7.07,10.55s-7.34-2.41-9.27-6.64c-1.84-4.06-5.24-7.07-9.95-6.73-4.24.3-7.2-.51-8.73-4.81-1.65-4.65.5-7.65,4-10.21,1.47-1.08,2.91-2.21,4.63-3.52-3-2-8.12.22-8.72-5.34-.58-5.36,2.47-8.37,6.11-11.25,4.28-3.38,6.53,1.07,9.91,2.61,3.44-5.73,7-13.06,14.85-11,4,1.07,7.68,6.4,3.71,12.33,1-.15,1.52-.17,2-.28,4.34-1.1,9.37-5.35,12.78.21,3.12,5.09,1.79,10.82-2.35,15.42a45.88,45.88,0,0,1-4.17,3.68c-3.69.09-7,.22-9.45-3.87-2.13-3.53-.55-6.7-.2-10.31-10.61,5.94-12,5.75-16.95-2.14-3,2.16-3.53,5.73-5.21,8.75C962,1597.51,970.13,1603.65,970.46,1616.23Z"/><path class="cls-3" d="M979.22,1607c3.7.22,8.39-1.38,8.91,4.79s-2.6,10.28-8.07,12c-5.72,1.77-5.94-3.62-7.51-7C975.21,1613.79,975.33,1609.09,979.22,1607Z"/></g><g class="cls-2"><path class="cls-3" d="M994.58,1498.63c.95,1.25,2.4,2.37,2.78,3.78,1.14,4.23,3.23,8.94-.18,12.72s-7.46,2-11.37-.46c-3.75-2.38-8.23-3-12-.15-3.39,2.58-6.31,3.53-9.92.78-3.91-3-3.75-6.69-2.21-10.75.64-1.72,1.23-3.46,2-5.49-3.62,0-6.68,4.64-10.2.32s-2.5-8.36-1-12.78c1.74-5.19,6-2.7,9.72-3.26-.25-6.7-1.28-14.78,6.45-17.37,4-1.33,9.91,1.13,9.81,8.28.8-.7,1.18-1,1.5-1.32,3-3.3,4.93-9.63,10.81-6.86,5.38,2.54,7.38,8.07,6.42,14.2a47.77,47.77,0,0,1-1.48,5.38c-3,2.1-5.75,4-10,2-3.7-1.79-4.1-5.3-5.78-8.52-5.65,10.81-6.89,11.4-15.34,7.54-1.36,3.47.15,6.74.39,10.19C977.32,1487.62,987.46,1488.28,994.58,1498.63Z"/><path class="cls-3" d="M996.89,1486.08c3.21-1.86,6.27-5.78,10.06-.9s3.42,10-.24,14.47c-3.82,4.63-7,.24-10.1-1.75C997.23,1494,994.77,1490,996.89,1486.08Z"/></g><g class="cls-2"><path class="cls-3" d="M1003.77,1408.78c0,1.58.5,3.34,0,4.7-1.6,4.07-2.74,9.1-7.73,10.06s-7.17-2.88-8.82-7.23c-1.58-4.16-4.78-7.39-9.5-7.36-4.25,0-7.15-1-8.4-5.36-1.35-4.75,1-7.61,4.64-9.93,1.55-1,3.06-2,4.85-3.21-2.87-2.22-8.11-.32-8.35-5.9-.23-5.39,3-8.2,6.82-10.83,4.49-3.1,6.45,1.49,9.72,3.25,3.8-5.5,7.8-12.58,15.52-10,4,1.33,7.26,6.89,2.91,12.54a19.66,19.66,0,0,0,2-.15c4.4-.81,9.69-4.72,12.73,1,2.79,5.28,1.1,10.91-3.33,15.24a46.33,46.33,0,0,1-4.4,3.4c-3.69-.15-7-.24-9.18-4.47-1.89-3.67-.12-6.72.47-10.31-11,5.24-12.33,5-16.78-3.23-3.16,2-3.9,5.48-5.76,8.39C996.53,1389.55,1004.24,1396.2,1003.77,1408.78Z"/><path class="cls-3" d="M1013.1,1400.13c3.69.46,8.47-.84,8.59,5.36s-3.25,10.09-8.83,11.43c-5.81,1.4-5.69-4-7-7.5C1008.67,1406.66,1009.09,1402,1013.1,1400.13Z"/></g><g class="cls-2"><path class="cls-3" d="M1027.45,1294.9c0,1.58.5,3.35,0,4.7-1.61,4.07-2.75,9.1-7.73,10.07-5.13,1-7.17-2.89-8.82-7.23-1.59-4.17-4.78-7.4-9.5-7.37-4.25,0-7.16-1-8.4-5.36-1.35-4.75,1-7.61,4.64-9.93,1.54-1,3-2,4.85-3.21-2.88-2.21-8.12-.31-8.36-5.9-.23-5.38,3-8.19,6.82-10.83,4.49-3.09,6.45,1.5,9.72,3.26,3.8-5.51,7.8-12.59,15.53-10,4,1.33,7.25,6.89,2.91,12.55,1.05-.08,1.52-.07,2-.16,4.4-.81,9.69-4.72,12.74,1,2.79,5.29,1.09,10.92-3.33,15.24a45.6,45.6,0,0,1-4.4,3.4c-3.69-.15-7-.24-9.19-4.47-1.89-3.67-.11-6.72.47-10.31-11,5.24-12.32,5-16.78-3.23-3.15,2-3.89,5.49-5.76,8.39C1020.22,1275.67,1027.93,1282.33,1027.45,1294.9Z"/><path class="cls-3" d="M1036.79,1286.25c3.68.46,8.46-.83,8.58,5.36s-3.25,10.09-8.82,11.43c-5.82,1.4-5.7-4-7-7.49C1032.35,1292.78,1032.77,1288.09,1036.79,1286.25Z"/></g><g class="cls-2"><path class="cls-3" d="M858,1602.75c-.08,1.58.3,3.37-.32,4.69-1.86,4-3.31,8.91-8.34,9.56-5.19.66-7-3.33-8.36-7.77-1.32-4.26-4.3-7.68-9-8-4.24-.24-7.08-1.42-8-5.88-1-4.82,1.46-7.53,5.25-9.62,1.6-.88,3.17-1.82,5-2.9-2.73-2.39-8.08-.82-8-6.41.1-5.39,3.5-8,7.47-10.38,4.68-2.81,6.35,1.9,9.51,3.86,4.13-5.25,8.56-12.07,16.11-9,3.88,1.58,6.81,7.33,2.12,12.71,1.06,0,1.53,0,2,0,4.44-.53,10-4.11,12.64,1.83,2.46,5.45.41,11-4.27,15a45.83,45.83,0,0,1-4.6,3.12c-3.67-.38-7-.68-8.89-5-1.66-3.78.3-6.71,1.11-10.26-11.28,4.54-12.61,4.18-16.55-4.28-3.27,1.76-4.23,5.23-6.27,8C851.94,1583.1,859.22,1590.23,858,1602.75Z"/><path class="cls-3" d="M867.82,1594.71c3.65.69,8.5-.31,8.23,5.88s-3.87,9.87-9.51,10.86c-5.9,1-5.44-4.36-6.56-7.93C863,1600.94,863.7,1596.29,867.82,1594.71Z"/></g><g class="cls-2"><path class="cls-3" d="M910.4,1534.67c-.08,1.57.29,3.37-.33,4.69-1.85,4-3.3,8.91-8.34,9.56s-7-3.33-8.35-7.77c-1.32-4.26-4.31-7.68-9-8-4.24-.24-7.07-1.42-8.05-5.88-1-4.82,1.47-7.53,5.25-9.62,1.61-.88,3.18-1.82,5-2.9-2.73-2.39-8.07-.82-8-6.41.1-5.39,3.5-8,7.48-10.38,4.68-2.81,6.35,1.9,9.5,3.86,4.14-5.25,8.57-12.07,16.12-9,3.87,1.58,6.81,7.33,2.12,12.7,1,0,1.53,0,2,0,4.44-.54,10-4.11,12.65,1.83,2.45,5.45.41,11-4.27,15a46,46,0,0,1-4.61,3.12c-3.67-.38-7-.68-8.89-5-1.66-3.78.31-6.72,1.11-10.26-11.28,4.54-12.6,4.18-16.54-4.28-3.27,1.76-4.23,5.23-6.27,8C904.38,1515,911.66,1522.15,910.4,1534.67Z"/><path class="cls-3" d="M920.26,1526.62c3.64.69,8.49-.3,8.23,5.89s-3.87,9.86-9.52,10.85c-5.89,1-5.44-4.35-6.56-7.92C915.42,1532.86,916.14,1528.21,920.26,1526.62Z"/></g><g class="cls-2"><path class="cls-3" d="M915.7,1436c.58,1.47,1.66,2.94,1.65,4.41-.06,4.37.67,9.48-3.65,12.17s-7.72-.11-10.8-3.58c-3-3.32-7.09-5.18-11.49-3.45-4,1.55-7,1.66-9.76-2-2.94-4-1.77-7.46.81-10.94,1.09-1.48,2.13-3,3.39-4.75-3.48-1-7.69,2.63-9.9-2.5-2.13-5-.12-8.73,2.51-12.56,3.1-4.51,6.56-.93,10.24-.46,1.6-6.51,2.81-14.56,10.95-14.92,4.17-.18,9.22,3.82,7.17,10.67,1-.45,1.41-.62,1.8-.86,3.82-2.34,7.37-7.9,12.26-3.61,4.49,3.93,4.9,9.8,2.31,15.42a46,46,0,0,1-2.9,4.77c-3.5,1.18-6.62,2.29-10.17-.87-3.07-2.75-2.49-6.24-3.22-9.8-8.39,8.84-9.75,9.06-16.82,3-2.25,3-1.69,6.52-2.4,9.9C902.11,1420.66,911.68,1424.1,915.7,1436Z"/><path class="cls-3" d="M921.35,1424.58c3.6-.9,7.61-3.83,9.92,1.91s.55,10.59-4.18,13.85c-4.93,3.4-6.74-1.69-9.24-4.47C919.53,1432.27,918.25,1427.74,921.35,1424.58Z"/></g><g class="cls-2"><path class="cls-3" d="M943.76,1328.59c.51,1.49,1.51,3,1.41,4.48-.28,4.37.18,9.51-4.27,12s-7.7-.52-10.6-4.15c-2.78-3.47-6.81-5.55-11.3-4.06-4,1.34-7.1,1.29-9.63-2.5-2.74-4.1-1.39-7.54,1.37-10.88,1.17-1.41,2.29-2.87,3.63-4.56-3.41-1.22-7.81,2.22-9.75-3-1.87-5.06.34-8.73,3.17-12.42,3.33-4.34,6.6-.57,10.25.09,1.93-6.42,3.56-14.39,11.71-14.32,4.18,0,9,4.3,6.6,11,1-.4,1.44-.54,1.85-.76,3.93-2.13,7.77-7.5,12.43-3,4.27,4.17,4.38,10,1.5,15.53a48.51,48.51,0,0,1-3.14,4.6c-3.56,1-6.74,1.95-10.11-1.41-2.93-2.9-2.17-6.36-2.72-10-8.83,8.39-10.2,8.54-16.95,2.12-2.4,2.84-2,6.43-2.91,9.77C931,1312.53,940.37,1316.48,943.76,1328.59Z"/><path class="cls-3" d="M950,1317.47c3.64-.71,7.8-3.42,9.81,2.44s0,10.6-4.9,13.6c-5.1,3.14-6.64-2-9-5C947.78,1325.05,946.74,1320.46,950,1317.47Z"/></g><g class="cls-2"><path class="cls-3" d="M1001.76,1201.36c.35,1.55,1.2,3.17,1,4.61-.71,4.32-.76,9.48-5.42,11.48s-7.62-1.28-10.15-5.17c-2.43-3.74-6.23-6.21-10.84-5.17-4.14.94-7.2.58-9.34-3.44-2.32-4.35-.64-7.65,2.44-10.7,1.3-1.29,2.55-2.62,4.06-4.17-3.28-1.55-8,1.43-9.41-4-1.37-5.21,1.19-8.65,4.37-12,3.74-4,6.62.08,10.19,1.1,2.55-6.19,5-14,13.06-13.08,4.15.45,8.54,5.18,5.49,11.63,1-.3,1.48-.39,1.91-.57,4.12-1.73,8.47-6.69,12.66-1.71,3.84,4.57,3.37,10.43,0,15.6a48.17,48.17,0,0,1-3.58,4.27c-3.64.64-6.9,1.26-9.92-2.41-2.63-3.18-1.53-6.54-1.72-10.17-9.62,7.46-11,7.48-17.08.43-2.67,2.59-2.65,6.19-3.86,9.43C990.63,1184.12,999.57,1189,1001.76,1201.36Z"/><path class="cls-3" d="M1009.06,1190.92c3.69-.34,8.09-2.63,9.52,3.4s-1.05,10.55-6.21,13c-5.39,2.62-6.41-2.69-8.46-5.81C1006.1,1198.25,1005.53,1193.57,1009.06,1190.92Z"/></g></g></g></svg>