<svg xmlns="http://www.w3.org/2000/svg" viewBox="0 0 154.12 162.93"><defs><style>.cls-1{fill:#fff;}.cls-2{fill:#3a322a;}.cls-3{fill:#7ac144;}.cls-4{fill:#f06d7b;}.cls-5{fill:#3b322b;}.cls-6{fill:#887a70;}.cls-7{fill:#fbe7cb;}.cls-8{fill:#649941;}.cls-9{fill:#8cc6dd;}.cls-10{fill:#f06d7a;}.cls-11{fill:#3b322a;}.cls-12{fill:#8bc6dd;}.cls-13{fill:#f6988a;}.cls-14{fill:#d1d856;}</style></defs><title>Ativo 2</title><g id="Camada_2" data-name="Camada 2"><g id="Camada_1-2" data-name="Camada 1"><g id="Group_54" data-name="Group 54"><path id="Path_29" data-name="Path 29" class="cls-1" d="M62.92,19.38c16.61-66.6,113,57.47,86.69,86.51s-51.35,65.45-92,55.3a75.92,75.92,0,0,1-55.31-92C12.42,28.47,46.32,86,62.92,19.38Z"/></g><path class="cls-2" d="M114.56,97.67a2.91,2.91,0,0,1-2.1,2c-.31.07-.33.36-.43.56-1.88,3.76-3.78,7.5-5.6,11.27a7,7,0,0,1-7.06,4.36c-.67,0-.93.13-.86.85s0,1.5,0,2.25c0,.51-.2.75-.72.75h-12c-.56,0-.75-.25-.73-.8,0-.84,0-1.68,0-2.52,0-.35,0-.52-.47-.52-3.34,0-6.69,0-10,0-.37,0-.46.12-.45.47,0,.88,0,1.77,0,2.66,0,.5-.2.7-.68.7H61.36c-.53,0-.71-.27-.7-.77,0-.8,0-1.59,0-2.39,0-.53-.11-.71-.67-.68a7.64,7.64,0,0,1-3.53-.57,6.8,6.8,0,0,1-3.37-3.15c-.65-1.27-1.27-2.55-1.91-3.83-.15-.3-.27-.59,0-.87.68-.28.91.24,1.11.68.46,1,1,2,1.46,3a6.2,6.2,0,0,0,3,3.1,6.67,6.67,0,0,0,2.72.54H96c.14,0,.28,0,.41,0,1.34,0,2.69,0,4,0a5.49,5.49,0,0,0,4.18-2.27,8.78,8.78,0,0,0,.81-1.35l5.16-10.32a4.37,4.37,0,0,0,.23-.49c.1-.26,0-.39-.26-.42a3.85,3.85,0,0,0-.48,0c-20.46,0-40.92,0-61.38,0a.89.89,0,0,0-.33,0c-.09.28.11.48.22.69.49,1,1,2,1.49,3,.18.37.41.8-.12,1.12-.43.1-.61-.17-.77-.5-.68-1.38-1.38-2.75-2-4.14a.93.93,0,0,0-.56-.52,2.62,2.62,0,0,1-1.9-3,2.69,2.69,0,0,1,2.79-2.21c4.8,0,9.6,0,14.4,0,.89,0,.88,0,.83-.85,0-.64-.09-1.27-.07-1.91,0-.41-.13-.52-.52-.59A18.26,18.26,0,0,1,56,88.91a7.2,7.2,0,0,1-3.72-4.8,6.79,6.79,0,0,1,1.42-5.49.86.86,0,0,0,.1-1A17,17,0,0,1,58.45,57c.29-.24.57-.5.94-.14.42.52,0,.77-.33,1a20.25,20.25,0,0,0-3.13,3.41,16,16,0,0,0-2.68,7.78,16.36,16.36,0,0,0,1,7A20,20,0,0,1,65.66,62.6c5.88-2.67,11.78-2.43,17.72.45a11.7,11.7,0,0,0-1.77-2.75,15.93,15.93,0,0,0-10.2-5.8,15.61,15.61,0,0,0-7.91.86c-.42.16-.89.49-1.24-.14-.1-.47.2-.62.57-.77A17.13,17.13,0,0,1,84.05,62a16.59,16.59,0,0,1,.69,15.26.88.88,0,0,0,.12,1.08,7,7,0,0,1,1.67,3.51c.07.4.2.5.57.56a25.55,25.55,0,0,1,7.6,2.27,9.72,9.72,0,0,1,3,2.33A34.79,34.79,0,0,0,101,83a14.4,14.4,0,0,1,2.66-3,2.34,2.34,0,0,1,2.48-.41,2.5,2.5,0,0,1,1.45,2.8,10.59,10.59,0,0,1-1.63,4,26.94,26.94,0,0,1-5.1,6,2.12,2.12,0,0,0-.31,1.89c.14.21.38.1.57.1h10.31a2.82,2.82,0,0,1,3.18,2.16Z"/><path class="cls-3" d="M49.93,104.78c.32-.34.15-.66,0-1-.63-1.31-1.36-2.58-1.9-3.93a1.4,1.4,0,0,1,.73-.07h57.67c.45,0,.49.22.38.56a3.78,3.78,0,0,1-.22.5c-1.82,3.62-3.62,7.25-5.44,10.87a6.2,6.2,0,0,1-2.53,2.69,5.35,5.35,0,0,1-2.21.59l-1.23,0c-11.79,0-23.58,0-35.37,0a6.27,6.27,0,0,1-6.23-3.88c-.49-1.07-1-2.12-1.57-3.18-.16-.34-.36-.58-.78-.49Z"/><path class="cls-4" d="M62.26,55.22c.28.31.59.21.93.08a16.22,16.22,0,0,1,20.27,7.47c.09.17.25.32.18.6-5.86-3-11.85-3.33-17.85-.63s-9.74,7.43-11.44,13.9a10.08,10.08,0,0,1-1-3A15.86,15.86,0,0,1,59,57.74c.28-.23.51-.46.36-.86Z"/><path class="cls-5" d="M95.2,70.06a5,5,0,1,1-5,5A5,5,0,0,1,95.2,70.06Z"/><path class="cls-5" d="M106.38,59c.27,0,.36.2.42.45a7.23,7.23,0,0,0,.32,1A3.64,3.64,0,0,0,110,62.86c.28,0,.61.08.64.48s-.31.46-.57.55a6.68,6.68,0,0,0-2.1,1.09,3.18,3.18,0,0,0-1.27,2c0,.3-.13.56-.45.59s-.43-.26-.54-.53a7.89,7.89,0,0,0-1.2-2.11,3.36,3.36,0,0,0-2.21-1.35c-.27,0-.56-.1-.57-.47s.27-.43.54-.5a6.51,6.51,0,0,0,2.24-.94,3,3,0,0,0,1.39-2.09C105.9,59.31,106,59,106.38,59Z"/><path class="cls-5" d="M95.17,63.31a3.24,3.24,0,1,1-3.24-3.25A3.21,3.21,0,0,1,95.17,63.31Z"/><path class="cls-5" d="M112.8,89.12a3.23,3.23,0,1,1-3.27-3.2A3.23,3.23,0,0,1,112.8,89.12Z"/><path class="cls-5" d="M110.47,53.84c.33,0,.43.25.49.5a2.61,2.61,0,0,0,2.23,2.27.44.44,0,0,1,.43.45c0,.27-.17.39-.4.47a5,5,0,0,0-1.41.68,2.15,2.15,0,0,0-1,1.36c0,.28-.12.57-.44.61s-.48-.28-.59-.55a5.18,5.18,0,0,0-.73-1.3,2.25,2.25,0,0,0-1.51-1c-.27,0-.51-.13-.53-.44s.23-.44.51-.52a6.06,6.06,0,0,0,1-.34A2.27,2.27,0,0,0,110,54.34C110.07,54.07,110.19,53.88,110.47,53.84Z"/><path class="cls-5" d="M102.67,53.65c.32,0,.39.25.45.51a2.68,2.68,0,0,0,2.25,2.25.46.46,0,0,1,.43.45c0,.27-.2.4-.42.47A4.89,4.89,0,0,0,104,58a2.32,2.32,0,0,0-1,1.4c0,.26-.07.57-.44.6s-.47-.28-.58-.55a5.4,5.4,0,0,0-.74-1.3,2.31,2.31,0,0,0-1.44-1c-.27,0-.57-.08-.58-.45s.3-.47.58-.53a4.64,4.64,0,0,0,1.14-.44,2.13,2.13,0,0,0,1.21-1.55C102.21,53.91,102.31,53.65,102.67,53.65Z"/><path class="cls-3" d="M74.48,94.93c.13.44.48.41.83.41h32.36l.34,0a1.79,1.79,0,0,1,1.12,2.81,1.33,1.33,0,0,1-1.12.66c-.21,0-.41,0-.62,0H47.74a2.22,2.22,0,0,1-.81,0,1.68,1.68,0,0,1-1.4-1.87,1.73,1.73,0,0,1,1.89-1.57h22.8c.37,0,.81.11,1-.41a1,1,0,0,1,.83-.19C72.84,94.81,73.69,94.52,74.48,94.93Z"/><path class="cls-6" d="M74.48,94.93H71.19c-.09-.52-.48-.52-.88-.52-2,0-3.92,0-5.88,0-.58,0-.88-.09-.84-.77A8.9,8.9,0,0,0,63.47,92c-.06-.57.17-.73.7-.64a39.43,39.43,0,0,0,7.83.24,24.83,24.83,0,0,0,10-2.29A8,8,0,0,0,86.29,85a3.61,3.61,0,0,0,.28-1.25c0-.28,0-.47.43-.41a21.83,21.83,0,0,1,8.34,2.78,6.48,6.48,0,0,1,1.79,1.67c.36.5.64.44,1,.06a39.93,39.93,0,0,0,4-4.86,14.47,14.47,0,0,1,1.71-2c.72-.68,1.4-.86,2-.52a1.75,1.75,0,0,1,.75,2.08,9.63,9.63,0,0,1-1.24,3,25.24,25.24,0,0,1-5,6.07c-.34.3-.43.18-.63-.12a5,5,0,0,0-7.43-1.21,4.4,4.4,0,0,0-1.75,3.41c0,.58-.21.7-.76.7-4.78,0-9.56,0-14.34,0C75,94.41,74.58,94.35,74.48,94.93Z"/><path class="cls-6" d="M75.28,80.86a14,14,0,0,1-2.22-4,18.8,18.8,0,0,1-.15-12.56c.15-.48.31-.59.8-.36a16,16,0,0,1,9.7,12.52,5.81,5.81,0,0,0,1.13,3,5.48,5.48,0,0,1,1.19,3.48c0,1.13-.17,1.37-1.28,1.6a8.39,8.39,0,0,1-7.13-1.65l-.49-.37c-.52-.46-1.12-.88-.57-1.73a1.87,1.87,0,0,0,.13-.8.45.45,0,0,0-.39-.54.43.43,0,0,0-.49.45A2.52,2.52,0,0,1,75.28,80.86Z"/><path class="cls-6" d="M56,84.72a7.18,7.18,0,0,1-2.43-.39.62.62,0,0,1-.49-.63,6.15,6.15,0,0,1,1.34-4.59,3.73,3.73,0,0,0,.71-1.65A19.09,19.09,0,0,1,65,64.1c.51-.29.7-.22.87.35,1.71,5.56,1.26,10.84-1.94,15.79-.12.18-.21.49-.46.44s-.16-.39-.22-.59-.06-.66-.47-.63-.42.46-.4.8a1,1,0,0,0,.08.39c.49.83.06,1.35-.56,1.87A8.63,8.63,0,0,1,56,84.72Z"/><path class="cls-7" d="M53.57,85.26a9,9,0,0,0,6.92-.71A9.8,9.8,0,0,0,63,82.69c.24-.24.39-.3.66,0a3.35,3.35,0,0,0,2,.89c.33,0,.42.16.49.49a3.65,3.65,0,0,0,2.59,3.11,3.1,3.1,0,0,0,3.53-1.8c.28-.53.23-1.25.58-1.64s1.15-.16,1.55-.56c.88-.89,1.43-.43,2.2.22a9,9,0,0,0,8.61,1.9A6.12,6.12,0,0,1,83,87.7a16.33,16.33,0,0,1-6.9,2.56,37.82,37.82,0,0,1-15.17-.38,14.38,14.38,0,0,1-5.44-2.4A6.43,6.43,0,0,1,53.57,85.26Z"/><path class="cls-7" d="M65.91,82.7a5.7,5.7,0,0,1-.64-.12c-1.24-.37-1.37-.74-.67-1.76a18.25,18.25,0,0,0,3-12.31,17.59,17.59,0,0,0-1-4.7c-.14-.37,0-.43.29-.58,1.48-.81,3-.36,4.44-.06.07,0,.13,0,.2.06.65.05.75.3.55,1C70.2,70.13,70.73,75.79,74.3,81c.56.82.56.89-.33,1.35a2.85,2.85,0,0,1-3.86-1.32c-.17-.35-.25-.6.24-.74a1.65,1.65,0,0,0,.56-.37c.48-.44,1-.92.79-1.63s-.83-1-1.48-1.13a3.32,3.32,0,0,0-2.45.28,1.14,1.14,0,0,0-.5,1.81,2.55,2.55,0,0,0,1.26,1.1c.28.12.29.24.19.51A2.92,2.92,0,0,1,65.91,82.7Z"/><path class="cls-8" d="M96.4,115a7.8,7.8,0,0,0,3-1.41,5.68,5.68,0,0,0,1.45-1.86c1.89-3.74,3.74-7.49,5.63-11.22.28-.56.18-.67-.42-.67q-29,0-58.09,0c.17-.3.46-.12.68-.12q27.21,0,54.42,0h8.18c-.13.28-.21.49-.31.69-1.81,3.65-3.64,7.3-5.45,11A6,6,0,0,1,99.61,115C98.54,115,97.47,115,96.4,115Z"/><path class="cls-4" d="M84.3,75.84c-1.67-7.18-6.07-11.73-13.19-13.76.45-.06.9-.15,1.35-.18a19.27,19.27,0,0,1,11.43,2.68,1.19,1.19,0,0,1,.63.67,16,16,0,0,1-.15,10.5A.22.22,0,0,1,84.3,75.84Z"/><path class="cls-6" d="M91.75,118.84c-1.73,0-3.46,0-5.19,0-.45,0-.6-.14-.57-.59,0-.61,0-1.23,0-1.84,0-.4.1-.57.53-.57,3.53,0,7,0,10.58,0,.43,0,.55.15.53.56,0,.64,0,1.27,0,1.91,0,.44-.16.53-.56.53C95.3,118.83,93.52,118.84,91.75,118.84Z"/><path class="cls-6" d="M67.35,118.84c-1.73,0-3.46,0-5.19,0-.49,0-.63-.15-.61-.62a13.22,13.22,0,0,0,0-1.78c0-.49.17-.6.63-.6q5.19,0,10.38,0c.51,0,.68.16.64.66a7.51,7.51,0,0,0,0,1.5c.06.64-.13.87-.81.85C70.72,118.8,69,118.84,67.35,118.84Z"/><path class="cls-9" d="M95.42,94.43c-1.18,0-2.36,0-3.54,0-.4,0-.56-.08-.54-.52a4.12,4.12,0,0,1,8.21-.22c0,.53,0,.78-.65.75C97.74,94.39,96.58,94.43,95.42,94.43Z"/><path class="cls-8" d="M46.93,98.78l1.09,0h59.14c1.26,0,1.85-.35,2.06-1.23s-.17-1.62-1.21-2.18c1.29,0,2.59,0,3.89,0a1.78,1.78,0,0,1,1.83,1.72,1.89,1.89,0,0,1-1.83,1.84c-1.12,0-2.23,0-3.35,0H47.93A1.9,1.9,0,0,1,46.93,98.78Z"/><path class="cls-10" d="M69.39,81.71a3.75,3.75,0,0,0,2.12,1.72c.2.07.33.12.3.36-.17,1.1-1,2.65-2.54,2.57s-2.19-1.53-2.34-2.65c0-.18.1-.22.25-.26A4,4,0,0,0,69.39,81.71Z"/><path class="cls-11" d="M84.41,107.42c1.59,1.49,2,2.92,1.22,4s-2.21,1.11-4.23.06a5.55,5.55,0,0,1-.94,1.57A2.35,2.35,0,0,1,78,114a2.27,2.27,0,0,1-1.53-2.2,3.11,3.11,0,0,1,0-1.22c.18-.57-.09-.65-.53-.68a3.39,3.39,0,0,1-1.76-.66,2.06,2.06,0,0,1-.08-3.5,3.57,3.57,0,0,1,2-.76c.43,0,.44-.15.35-.52a3.76,3.76,0,0,1,.1-2.15,2.07,2.07,0,0,1,3.26-1.06,3.46,3.46,0,0,1,1.34,1.68c.16.38.29.4.63.2a3.36,3.36,0,0,1,2.67-.5A2,2,0,0,1,86,105C85.8,105.76,85.62,106,84.41,107.42Z"/><path class="cls-9" d="M99.27,75.07a4.11,4.11,0,0,1-8.21,0,4.11,4.11,0,1,1,8.21,0Z"/><path class="cls-3" d="M108.72,63.43a5.78,5.78,0,0,0-2.62,2.34,6.87,6.87,0,0,0-2.38-2.64A5.57,5.57,0,0,0,106.35,61,5,5,0,0,0,108.72,63.43Z"/><path class="cls-9" d="M94.29,63.27a2.36,2.36,0,1,1-2.36-2.34A2.39,2.39,0,0,1,94.29,63.27Z"/><path class="cls-12" d="M109.55,91.51a2.36,2.36,0,1,1,2.38-2.32A2.39,2.39,0,0,1,109.55,91.51Z"/><path class="cls-3" d="M110.29,58.49A6.14,6.14,0,0,0,109,56.93c.07-.06.11-.12.17-.13.56-.21.94-1.07,1.41-.9s.75.84,1.3,1.24A4.87,4.87,0,0,0,110.29,58.49Z"/><path class="cls-3" d="M102.63,55.48A4.81,4.81,0,0,0,104,56.89a5.68,5.68,0,0,0-1.51,1.38,6.62,6.62,0,0,0-1.15-1.36c-.22-.18-.16-.27.06-.38A4.26,4.26,0,0,0,102.63,55.48Z"/><path class="cls-13" d="M79,76.24a4.43,4.43,0,0,1,2.47.8,1.37,1.37,0,0,1,.12,2.17,4.21,4.21,0,0,1-5.25,0,1.44,1.44,0,0,1,.33-2.27A4.86,4.86,0,0,1,79,76.24Z"/><path class="cls-5" d="M74.41,75.69A1.33,1.33,0,0,1,73,74.32a1.36,1.36,0,0,1,2.72,0A1.33,1.33,0,0,1,74.41,75.69Z"/><path class="cls-13" d="M59.69,76.23a4,4,0,0,1,2.7,1,1.31,1.31,0,0,1,0,1.94,4.21,4.21,0,0,1-5.3,0,1.3,1.3,0,0,1,0-1.94A3.91,3.91,0,0,1,59.69,76.23Z"/><path class="cls-11" d="M65.68,74.36a1.32,1.32,0,1,1-2.64,0A1.27,1.27,0,0,1,64.36,73,1.32,1.32,0,0,1,65.68,74.36Z"/><path class="cls-10" d="M83.52,111.38a3.41,3.41,0,0,1-2.72-2c-.17-.33-.22-.62.16-.87a.9.9,0,0,0,.38-.47c.12-.66.58-.62,1-.53A3.39,3.39,0,0,1,85,109.57C85.43,110.65,84.83,111.44,83.52,111.38Z"/><path class="cls-10" d="M80.71,104.72a4.68,4.68,0,0,1-.09.69.8.8,0,0,1-1.29.46,4.38,4.38,0,0,0-1.48-.81.6.6,0,0,1-.24-.12,2.66,2.66,0,0,1,.36-3.13,1.18,1.18,0,0,1,1.45.19A3.47,3.47,0,0,1,80.71,104.72Z"/><path class="cls-10" d="M77.28,111.1a3.51,3.51,0,0,1,1.13-2.39.8.8,0,0,1,1.34.37,3,3,0,0,0,.52,1.18c.59.66.21,1.23-.14,1.78a1.83,1.83,0,0,1-1.75,1.08C77.71,113.06,77.26,112.27,77.28,111.1Z"/><path class="cls-10" d="M76.63,105.79a3.88,3.88,0,0,1,1.53.36c.78.41.81,1.08.06,1.58a2.07,2.07,0,0,0-.8.72c-.36.69-.93.64-1.52.51a2.1,2.1,0,0,1-1.76-1.22,1.14,1.14,0,0,1,.47-1.32A3.3,3.3,0,0,1,76.63,105.79Z"/><path class="cls-10" d="M81.74,106.57c-.56.15-.59-.08-.37-.59a1.92,1.92,0,0,0,.22-1c-.1-.81.42-1.07,1-1.33a1.92,1.92,0,0,1,2.33.2,2,2,0,0,1-.53,2.29c-.44.5-.91.87-1.64.51A2,2,0,0,0,81.74,106.57Z"/><path class="cls-14" d="M80.61,107.43a.52.52,0,0,1-.59.51.51.51,0,0,1-.51-.53.52.52,0,0,1,.56-.56C80.41,106.85,80.59,107.08,80.61,107.43Z"/></g></g></svg>